Note on, D#3 ////AQUI:86.0 key=51 velocity: 80
Note on, A#3 ////AQUI:600.0 key=58 velocity: 80
Note on, C3 ////AQUI:428.0 key=48 velocity: 80
Note on, E4 ////AQUI:172.0 key=64 velocity: 80
Note on, B2 ////AQUI:257.0 key=47 velocity: 80
Note on, E3 ////AQUI:171.0 key=52 velocity: 80
Note on, A3 ////AQUI:172.0 key=57 velocity: 80
Note on, E3 ////AQUI:257.0 key=52 velocity: 80
Note on, A3 ////AQUI:171.0 key=57 velocity: 80
Note on, C4 ////AQUI:172.0 key=60 velocity: 80
Note on, A#3 ////AQUI:85.0 key=58 velocity: 80
Note on, A#3 ////AQUI:172.0 key=58 velocity: 80
Note on, G#3 ////AQUI:171.0 key=56 velocity: 80
Note on, D3 ////AQUI:172.0 key=50 velocity: 80
Note on, C#3 ////AQUI:85.0 key=49 velocity: 80
Note on, F#3 ////AQUI:172.0 key=54 velocity: 80
Note on, F#3 ////AQUI:171.0 key=54 velocity: 80
Note on, D4 ////AQUI:86.0 key=62 velocity: 80
Note on, D#4 ////AQUI:86.0 key=63 velocity: 80
Note on, C3 ////AQUI:85.0 key=48 velocity: 80
Note on, G3 ////AQUI:172.0 key=55 velocity: 80
Note on, C3 ////AQUI:171.0 key=48 velocity: 80
Note on, D#3 ////AQUI:86.0 key=51 velocity: 80
Note on, D5 ////AQUI:86.0 key=74 velocity: 80
Note on, F#3 ////AQUI:85.0 key=54 velocity: 80
Note on, B2 ////AQUI:172.0 key=47 velocity: 80
Note on, F3 ////AQUI:85.0 key=53 velocity: 80
Note on, D#3 ////AQUI:86.0 key=51 velocity: 80
Note on, D#3 ////AQUI:86.0 key=51 velocity: 80
Note on, E4 ////AQUI:86.0 key=64 velocity: 80
Note on, C#3 ////AQUI:85.0 key=49 velocity: 80
Note on, D#3 ////AQUI:86.0 key=51 velocity: 80
Note on, A#3 ////AQUI:86.0 key=58 velocity: 80
Note on, G3 ////AQUI:85.0 key=55 velocity: 80
Note on, B2 ////AQUI:86.0 key=47 velocity: 80
Note on, E3 ////AQUI:86.0 key=52 velocity: 80
Note on, G#3 ////AQUI:86.0 key=56 velocity: 80
Note on, D3 ////AQUI:85.0 key=50 velocity: 80
Note on, D3 ////AQUI:86.0 key=50 velocity: 80
Note on, G3 ////AQUI:86.0 key=55 velocity: 80
Note on, A#3 ////AQUI:85.0 key=58 velocity: 80
Note on, E3 ////AQUI:86.0 key=52 velocity: 80
Note on, D#3 ////AQUI:86.0 key=51 velocity: 80
Note on, A#3 DurTick:600.0 key=58 velocity: 80
Note on, C3 DurTick:428.0 key=48 velocity: 80
Note on, E4 DurTick:172.0 key=64 velocity: 80
Note on, B2 DurTick:257.0 key=47 velocity: 80
Note on, E3 DurTick:171.0 key=52 velocity: 80
Note on, A3 DurTick:172.0 key=57 velocity: 80
Note on, E3 DurTick:257.0 key=52 velocity: 80
Note on, A3 DurTick:171.0 key=57 velocity: 80
Note on, C4 DurTick:172.0 key=60 velocity: 80
Note on, A#3 DurTick:85.0 key=58 velocity: 80
Note on, A#3 DurTick:172.0 key=58 velocity: 80
Note on, G#3 DurTick:171.0 key=56 velocity: 80
Note on, D3 DurTick:172.0 key=50 velocity: 80
Note on, C#3 DurTick:85.0 key=49 velocity: 80
Note on, F#3 DurTick:172.0 key=54 velocity: 80
Note on, F#3 DurTick:171.0 key=54 velocity: 80
Note on, D4 DurTick:86.0 key=62 velocity: 80
Note on, D#4 DurTick:86.0 key=63 velocity: 80
Note on, C3 DurTick:85.0 key=48 velocity: 80
Note on, G3 DurTick:172.0 key=55 velocity: 80
Note on, C3 DurTick:171.0 key=48 velocity: 80
Note on, D#3 DurTick:86.0 key=51 velocity: 80
Note on, D5 DurTick:86.0 key=74 velocity: 80
Note on, F#3 DurTick:85.0 key=54 velocity: 80
Note on, B2 DurTick:172.0 key=47 velocity: 80
Note on, F3 DurTick:85.0 key=53 velocity: 80
Note on, D#3 DurTick:86.0 key=51 velocity: 80
Note on, D#3 DurTick:86.0 key=51 velocity: 80
Note on, E4 DurTick:86.0 key=64 velocity: 80
Note on, C#3 DurTick:85.0 key=49 velocity: 80
Note on, D#3 DurTick:86.0 key=51 velocity: 80
Note on, A#3 DurTick:86.0 key=58 velocity: 80
Note on, G3 DurTick:85.0 key=55 velocity: 80
Note on, B2 DurTick:86.0 key=47 velocity: 80
Note on, E3 DurTick:86.0 key=52 velocity: 80
Note on, G#3 DurTick:86.0 key=56 velocity: 80
Note on, D3 DurTick:85.0 key=50 velocity: 80
Note on, D3 DurTick:86.0 key=50 velocity: 80
Note on, G3 DurTick:86.0 key=55 velocity: 80
Note on, A#3 DurTick:85.0 key=58 velocity: 80
Note on, E3 DurTick:86.0 key=52 velocity: 80
Note on, D#3 DurTick:86.0 key=51 velocity: 80
Note on, A#3 DurTick:600.0 key=58 velocity: 80
Note on, C3 DurTick:428.0 key=48 velocity: 80
Note on, E4 DurTick:172.0 key=64 velocity: 80
Note on, B2 DurTick:257.0 key=47 velocity: 80
Note on, E3 DurTick:171.0 key=52 velocity: 80
Note on, A3 DurTick:172.0 key=57 velocity: 80
Note on, E3 DurTick:257.0 key=52 velocity: 80
Note on, A3 DurTick:171.0 key=57 velocity: 80
Note on, C4 DurTick:172.0 key=60 velocity: 80
Note on, A#3 DurTick:85.0 key=58 velocity: 80
Note on, A#3 DurTick:172.0 key=58 velocity: 80
Note on, G#3 DurTick:171.0 key=56 velocity: 80
Note on, D3 DurTick:172.0 key=50 velocity: 80
Note on, C#3 DurTick:85.0 key=49 velocity: 80
Note on, F#3 DurTick:172.0 key=54 velocity: 80
Note on, F#3 DurTick:171.0 key=54 velocity: 80
Note on, D4 DurTick:86.0 key=62 velocity: 80
Note on, D#4 DurTick:86.0 key=63 velocity: 80
Note on, C3 DurTick:85.0 key=48 velocity: 80
Note on, G3 DurTick:172.0 key=55 velocity: 80
Note on, C3 DurTick:171.0 key=48 velocity: 80
Note on, D#3 DurTick:86.0 key=51 velocity: 80
Note on, D5 DurTick:86.0 key=74 velocity: 80
Note on, F#3 DurTick:85.0 key=54 velocity: 80
Note on, B2 DurTick:172.0 key=47 velocity: 80
Note on, F3 DurTick:85.0 key=53 velocity: 80
Note on, D#3 DurTick:86.0 key=51 velocity: 80
Note on, D#3 DurTick:86.0 key=51 velocity: 80
Note on, E4 DurTick:86.0 key=64 velocity: 80
Note on, C#3 DurTick:85.0 key=49 velocity: 80
Note on, D#3 DurTick:86.0 key=51 velocity: 80
Note on, A#3 DurTick:86.0 key=58 velocity: 80
Note on, G3 DurTick:85.0 key=55 velocity: 80
Note on, B2 DurTick:86.0 key=47 velocity: 80
Note on, E3 DurTick:86.0 key=52 velocity: 80
Note on, G#3 DurTick:86.0 key=56 velocity: 80
Note on, D3 DurTick:85.0 key=50 velocity: 80
Note on, D3 DurTick:86.0 key=50 velocity: 80
Note on, G3 DurTick:86.0 key=55 velocity: 80
Note on, A#3 DurTick:85.0 key=58 velocity: 80
Note on, E3 DurTick:86.0 key=52 velocity: 80
Note on, D#3 DurTick:86.0 key=51 velocity: 80
Note on, A#3 DurTick:600.0 key=58 velocity: 80
Note on, C3 DurTick:428.0 key=48 velocity: 80
Note on, E4 DurTick:172.0 key=64 velocity: 80
Note on, B2 DurTick:257.0 key=47 velocity: 80
Note on, E3 DurTick:171.0 key=52 velocity: 80
Note on, A3 DurTick:172.0 key=57 velocity: 80
Note on, E3 DurTick:257.0 key=52 velocity: 80
Note on, A3 DurTick:171.0 key=57 velocity: 80
Note on, C4 DurTick:172.0 key=60 velocity: 80
Note on, A#3 DurTick:85.0 key=58 velocity: 80
Note on, A#3 DurTick:172.0 key=58 velocity: 80
Note on, G#3 DurTick:171.0 key=56 velocity: 80
Note on, D3 DurTick:172.0 key=50 velocity: 80
Note on, C#3 DurTick:85.0 key=49 velocity: 80
Note on, F#3 DurTick:172.0 key=54 velocity: 80
Note on, F#3 DurTick:171.0 key=54 velocity: 80
Note on, D4 DurTick:86.0 key=62 velocity: 80
Note on, D#4 DurTick:86.0 key=63 velocity: 80
Note on, C3 DurTick:85.0 key=48 velocity: 80
Note on, G3 DurTick:172.0 key=55 velocity: 80
Note on, C3 DurTick:171.0 key=48 velocity: 80
Note on, D#3 DurTick:86.0 key=51 velocity: 80
Note on, D5 DurTick:86.0 key=74 velocity: 80
Note on, F#3 DurTick:85.0 key=54 velocity: 80
Note on, B2 DurTick:172.0 key=47 velocity: 80
Note on, F3 DurTick:85.0 key=53 velocity: 80
Note on, D#3 DurTick:86.0 key=51 velocity: 80
Note on, D#3 DurTick:86.0 key=51 velocity: 80
Note on, E4 DurTick:86.0 key=64 velocity: 80
Note on, C#3 DurTick:85.0 key=49 velocity: 80
Note on, D#3 DurTick:86.0 key=51 velocity: 80
Note on, A#3 DurTick:86.0 key=58 velocity: 80
Note on, G3 DurTick:85.0 key=55 velocity: 80
Note on, B2 DurTick:86.0 key=47 velocity: 80
Note on, E3 DurTick:86.0 key=52 velocity: 80
Note on, G#3 DurTick:86.0 key=56 velocity: 80
Note on, D3 DurTick:85.0 key=50 velocity: 80
Note on, D3 DurTick:86.0 key=50 velocity: 80
Note on, G3 DurTick:86.0 key=55 velocity: 80
Note on, A#3 DurTick:85.0 key=58 velocity: 80
Note on, E3 DurTick:86.0 key=52 velocity: 80
Note on, D#3 DurTick:86.0 key=51 velocity: 80
Note on, A#3 DurTick:600.0 key=58 velocity: 80
Note on, C3 DurTick:428.0 key=48 velocity: 80
Note on, E4 DurTick:172.0 key=64 velocity: 80
Note on, B2 DurTick:257.0 key=47 velocity: 80
Note on, E3 DurTick:171.0 key=52 velocity: 80
Note on, A3 DurTick:172.0 key=57 velocity: 80
Note on, E3 DurTick:257.0 key=52 velocity: 80
Note on, A3 DurTick:171.0 key=57 velocity: 80
Note on, C4 DurTick:172.0 key=60 velocity: 80
Note on, A#3 DurTick:85.0 key=58 velocity: 80
Note on, A#3 DurTick:172.0 key=58 velocity: 80
Note on, G#3 DurTick:171.0 key=56 velocity: 80
Note on, D3 DurTick:172.0 key=50 velocity: 80
Note on, C#3 DurTick:85.0 key=49 velocity: 80
Note on, F#3 DurTick:172.0 key=54 velocity: 80
Note on, F#3 DurTick:171.0 key=54 velocity: 80
Note on, D4 DurTick:86.0 key=62 velocity: 80
Note on, D#4 DurTick:86.0 key=63 velocity: 80
Note on, C3 DurTick:85.0 key=48 velocity: 80
Note on, G3 DurTick:172.0 key=55 velocity: 80
Note on, C3 DurTick:171.0 key=48 velocity: 80
Note on, D#3 DurTick:86.0 key=51 velocity: 80
Note on, D5 DurTick:86.0 key=74 velocity: 80
Note on, F#3 DurTick:85.0 key=54 velocity: 80
Note on, B2 DurTick:172.0 key=47 velocity: 80
Note on, F3 DurTick:85.0 key=53 velocity: 80
Note on, D#3 DurTick:86.0 key=51 velocity: 80
Note on, D#3 DurTick:86.0 key=51 velocity: 80
Note on, E4 DurTick:86.0 key=64 velocity: 80
Note on, C#3 DurTick:85.0 key=49 velocity: 80
Note on, D#3 DurTick:86.0 key=51 velocity: 80
Note on, A#3 DurTick:86.0 key=58 velocity: 80
Note on, G3 DurTick:85.0 key=55 velocity: 80
Note on, B2 DurTick:86.0 key=47 velocity: 80
Note on, E3 DurTick:86.0 key=52 velocity: 80
Note on, G#3 DurTick:86.0 key=56 velocity: 80
Note on, D3 DurTick:85.0 key=50 velocity: 80
Note on, D3 DurTick:86.0 key=50 velocity: 80
Note on, G3 DurTick:86.0 key=55 velocity: 80
Note on, A#3 DurTick:85.0 key=58 velocity: 80
Note on, E3 DurTick:86.0 key=52 velocity: 80
Note on, D#3 DurTick:86.0 key=51 velocity: 80
Note on, A#3 DurTick:600.0 key=58 velocity: 80
Note on, C3 DurTick:428.0 key=48 velocity: 80
Note on, E4 DurTick:172.0 key=64 velocity: 80
Note on, B2 DurTick:257.0 key=47 velocity: 80
Note on, E3 DurTick:171.0 key=52 velocity: 80
Note on, A3 DurTick:172.0 key=57 velocity: 80
Note on, E3 DurTick:257.0 key=52 velocity: 80
Note on, A3 DurTick:171.0 key=57 velocity: 80
Note on, C4 DurTick:172.0 key=60 velocity: 80
Note on, A#3 DurTick:85.0 key=58 velocity: 80
Note on, A#3 DurTick:172.0 key=58 velocity: 80
Note on, G#3 DurTick:171.0 key=56 velocity: 80
Note on, D3 DurTick:172.0 key=50 velocity: 80
Note on, C#3 DurTick:85.0 key=49 velocity: 80
Note on, F#3 DurTick:172.0 key=54 velocity: 80
Note on, F#3 DurTick:171.0 key=54 velocity: 80
Note on, D4 DurTick:86.0 key=62 velocity: 80
Note on, D#4 DurTick:86.0 key=63 velocity: 80
Note on, C3 DurTick:85.0 key=48 velocity: 80
Note on, G3 DurTick:172.0 key=55 velocity: 80
Note on, C3 DurTick:171.0 key=48 velocity: 80
Note on, D#3 DurTick:86.0 key=51 velocity: 80
Note on, D5 DurTick:86.0 key=74 velocity: 80
Note on, F#3 DurTick:85.0 key=54 velocity: 80
Note on, B2 DurTick:172.0 key=47 velocity: 80
Note on, F3 DurTick:85.0 key=53 velocity: 80
Note on, D#3 DurTick:86.0 key=51 velocity: 80
Note on, D#3 DurTick:86.0 key=51 velocity: 80
Note on, E4 DurTick:86.0 key=64 velocity: 80
Note on, C#3 DurTick:85.0 key=49 velocity: 80
Note on, D#3 DurTick:86.0 key=51 velocity: 80
Note on, A#3 DurTick:86.0 key=58 velocity: 80
Note on, G3 DurTick:85.0 key=55 velocity: 80
Note on, B2 DurTick:86.0 key=47 velocity: 80
Note on, E3 DurTick:86.0 key=52 velocity: 80
Note on, G#3 DurTick:86.0 key=56 velocity: 80
Note on, D3 DurTick:85.0 key=50 velocity: 80
Note on, D3 DurTick:86.0 key=50 velocity: 80
Note on, G3 DurTick:86.0 key=55 velocity: 80
Note on, A#3 DurTick:85.0 key=58 velocity: 80
Note on, E3 DurTick:86.0 key=52 velocity: 80
Note on, D#3 DurTick:86.0 key=51 velocity: 80
Note on, A#3 DurTick:600.0 key=58 velocity: 80
Note on, C3 DurTick:428.0 key=48 velocity: 80
Note on, E4 DurTick:172.0 key=64 velocity: 80
Note on, B2 DurTick:257.0 key=47 velocity: 80
Note on, E3 DurTick:171.0 key=52 velocity: 80
Note on, A3 DurTick:172.0 key=57 velocity: 80
Note on, E3 DurTick:257.0 key=52 velocity: 80
Note on, A3 DurTick:171.0 key=57 velocity: 80
Note on, C4 DurTick:172.0 key=60 velocity: 80
Note on, A#3 DurTick:85.0 key=58 velocity: 80
Note on, A#3 DurTick:172.0 key=58 velocity: 80
Note on, G#3 DurTick:171.0 key=56 velocity: 80
Note on, D3 DurTick:172.0 key=50 velocity: 80
Note on, C#3 DurTick:85.0 key=49 velocity: 80
Note on, F#3 DurTick:172.0 key=54 velocity: 80
Note on, F#3 DurTick:171.0 key=54 velocity: 80
Note on, D4 DurTick:86.0 key=62 velocity: 80
Note on, D#4 DurTick:86.0 key=63 velocity: 80
Note on, C3 DurTick:85.0 key=48 velocity: 80
Note on, G3 DurTick:172.0 key=55 velocity: 80
Note on, C3 DurTick:171.0 key=48 velocity: 80
Note on, D#3 DurTick:86.0 key=51 velocity: 80
Note on, D5 DurTick:86.0 key=74 velocity: 80
Note on, F#3 DurTick:85.0 key=54 velocity: 80
Note on, B2 DurTick:172.0 key=47 velocity: 80
Note on, F3 DurTick:85.0 key=53 velocity: 80
Note on, D#3 DurTick:86.0 key=51 velocity: 80
Note on, D#3 DurTick:86.0 key=51 velocity: 80
Note on, E4 DurTick:86.0 key=64 velocity: 80
Note on, C#3 DurTick:85.0 key=49 velocity: 80
Note on, D#3 DurTick:86.0 key=51 velocity: 80
Note on, A#3 DurTick:86.0 key=58 velocity: 80
Note on, G3 DurTick:85.0 key=55 velocity: 80
Note on, B2 DurTick:86.0 key=47 velocity: 80
Note on, E3 DurTick:86.0 key=52 velocity: 80
Note on, G#3 DurTick:86.0 key=56 velocity: 80
Note on, D3 DurTick:85.0 key=50 velocity: 80
Note on, D3 DurTick:86.0 key=50 velocity: 80
Note on, G3 DurTick:86.0 key=55 velocity: 80
Note on, A#3 DurTick:85.0 key=58 velocity: 80
Note on, E3 DurTick:86.0 key=52 velocity: 80
Note on, D#3 DurTick:86.0 key=51 velocity: 80
Note on, A#3 DurTick:600.0 key=58 velocity: 80
Note on, C3 DurTick:428.0 key=48 velocity: 80
Note on, E4 DurTick:172.0 key=64 velocity: 80
Note on, B2 DurTick:257.0 key=47 velocity: 80
Note on, E3 DurTick:171.0 key=52 velocity: 80
Note on, A3 DurTick:172.0 key=57 velocity: 80
Note on, E3 DurTick:257.0 key=52 velocity: 80
Note on, A3 DurTick:171.0 key=57 velocity: 80
Note on, C4 DurTick:172.0 key=60 velocity: 80
Note on, A#3 DurTick:85.0 key=58 velocity: 80
Note on, A#3 DurTick:172.0 key=58 velocity: 80
Note on, G#3 DurTick:171.0 key=56 velocity: 80
Note on, D3 DurTick:172.0 key=50 velocity: 80
Note on, C#3 DurTick:85.0 key=49 velocity: 80
Note on, F#3 DurTick:172.0 key=54 velocity: 80
Note on, F#3 DurTick:171.0 key=54 velocity: 80
Note on, D4 DurTick:86.0 key=62 velocity: 80
Note on, D#4 DurTick:86.0 key=63 velocity: 80
Note on, C3 DurTick:85.0 key=48 velocity: 80
Note on, G3 DurTick:172.0 key=55 velocity: 80
Note on, C3 DurTick:171.0 key=48 velocity: 80
Note on, D#3 DurTick:86.0 key=51 velocity: 80
Note on, D5 DurTick:86.0 key=74 velocity: 80
Note on, F#3 DurTick:85.0 key=54 velocity: 80
Note on, B2 DurTick:172.0 key=47 velocity: 80
Note on, F3 DurTick:85.0 key=53 velocity: 80
Note on, D#3 DurTick:86.0 key=51 velocity: 80
Note on, D#3 DurTick:86.0 key=51 velocity: 80
Note on, E4 DurTick:86.0 key=64 velocity: 80
Note on, C#3 DurTick:85.0 key=49 velocity: 80
Note on, D#3 DurTick:86.0 key=51 velocity: 80
Note on, A#3 DurTick:86.0 key=58 velocity: 80
Note on, G3 DurTick:85.0 key=55 velocity: 80
Note on, B2 DurTick:86.0 key=47 velocity: 80
Note on, E3 DurTick:86.0 key=52 velocity: 80
Note on, G#3 DurTick:86.0 key=56 velocity: 80
Note on, D3 DurTick:85.0 key=50 velocity: 80
Note on, D3 DurTick:86.0 key=50 velocity: 80
Note on, G3 DurTick:86.0 key=55 velocity: 80
Note on, A#3 DurTick:85.0 key=58 velocity: 80
Note on, E3 DurTick:86.0 key=52 velocity: 80
Note on, D#3 DurTick:86.0 key=51 velocity: 80
Note on, A#3 DurTick:600.0 key=58 velocity: 80
Note on, C3 DurTick:428.0 key=48 velocity: 80
Note on, E4 DurTick:172.0 key=64 velocity: 80
Note on, B2 DurTick:257.0 key=47 velocity: 80
Note on, E3 DurTick:171.0 key=52 velocity: 80
Note on, A3 DurTick:172.0 key=57 velocity: 80
Note on, E3 DurTick:257.0 key=52 velocity: 80
Note on, A3 DurTick:171.0 key=57 velocity: 80
Note on, C4 DurTick:172.0 key=60 velocity: 80
Note on, A#3 DurTick:85.0 key=58 velocity: 80
Note on, A#3 DurTick:172.0 key=58 velocity: 80
Note on, G#3 DurTick:171.0 key=56 velocity: 80
Note on, D3 DurTick:172.0 key=50 velocity: 80
Note on, C#3 DurTick:85.0 key=49 velocity: 80
Note on, F#3 DurTick:172.0 key=54 velocity: 80
Note on, F#3 DurTick:171.0 key=54 velocity: 80
Note on, D4 DurTick:86.0 key=62 velocity: 80
Note on, D#4 DurTick:86.0 key=63 velocity: 80
Note on, C3 DurTick:85.0 key=48 velocity: 80
Note on, G3 DurTick:172.0 key=55 velocity: 80
Note on, C3 DurTick:171.0 key=48 velocity: 80
Note on, D#3 DurTick:86.0 key=51 velocity: 80
Note on, D5 DurTick:86.0 key=74 velocity: 80
Note on, F#3 DurTick:85.0 key=54 velocity: 80
Note on, B2 DurTick:172.0 key=47 velocity: 80
Note on, F3 DurTick:85.0 key=53 velocity: 80
Note on, D#3 DurTick:86.0 key=51 velocity: 80
Note on, D#3 DurTick:86.0 key=51 velocity: 80
Note on, E4 DurTick:86.0 key=64 velocity: 80
Note on, C#3 DurTick:85.0 key=49 velocity: 80
Note on, D#3 DurTick:86.0 key=51 velocity: 80
Note on, A#3 DurTick:86.0 key=58 velocity: 80
Note on, G3 DurTick:85.0 key=55 velocity: 80
Note on, B2 DurTick:86.0 key=47 velocity: 80
Note on, E3 DurTick:86.0 key=52 velocity: 80
Note on, G#3 DurTick:86.0 key=56 velocity: 80
Note on, D3 DurTick:85.0 key=50 velocity: 80
Note on, D3 DurTick:86.0 key=50 velocity: 80
Note on, G3 DurTick:86.0 key=55 velocity: 80
Note on, A#3 DurTick:85.0 key=58 velocity: 80
Note on, E3 DurTick:86.0 key=52 velocity: 80
Note on, D#3 DurTick:86.0 key=51 velocity: 80
Note on, A#3 DurTick:600.0 key=58 velocity: 80
Note on, C3 DurTick:428.0 key=48 velocity: 80
Note on, E4 DurTick:172.0 key=64 velocity: 80
Note on, B2 DurTick:257.0 key=47 velocity: 80
Note on, E3 DurTick:171.0 key=52 velocity: 80
Note on, A3 DurTick:172.0 key=57 velocity: 80
Note on, E3 DurTick:257.0 key=52 velocity: 80
Note on, A3 DurTick:171.0 key=57 velocity: 80
Note on, C4 DurTick:172.0 key=60 velocity: 80
Note on, A#3 DurTick:85.0 key=58 velocity: 80
Note on, A#3 DurTick:172.0 key=58 velocity: 80
Note on, G#3 DurTick:171.0 key=56 velocity: 80
Note on, D3 DurTick:172.0 key=50 velocity: 80
Note on, C#3 DurTick:85.0 key=49 velocity: 80
Note on, F#3 DurTick:172.0 key=54 velocity: 80
Note on, F#3 DurTick:171.0 key=54 velocity: 80
Note on, D4 DurTick:86.0 key=62 velocity: 80
Note on, D#4 DurTick:86.0 key=63 velocity: 80
Note on, C3 DurTick:85.0 key=48 velocity: 80
Note on, G3 DurTick:172.0 key=55 velocity: 80
Note on, C3 DurTick:171.0 key=48 velocity: 80
Note on, D#3 DurTick:86.0 key=51 velocity: 80
Note on, D5 DurTick:86.0 key=74 velocity: 80
Note on, F#3 DurTick:85.0 key=54 velocity: 80
Note on, B2 DurTick:172.0 key=47 velocity: 80
Note on, F3 DurTick:85.0 key=53 velocity: 80
Note on, D#3 DurTick:86.0 key=51 velocity: 80
Note on, D#3 DurTick:86.0 key=51 velocity: 80
Note on, E4 DurTick:86.0 key=64 velocity: 80
Note on, C#3 DurTick:85.0 key=49 velocity: 80
Note on, D#3 DurTick:86.0 key=51 velocity: 80
Note on, A#3 DurTick:86.0 key=58 velocity: 80
Note on, G3 DurTick:85.0 key=55 velocity: 80
Note on, B2 DurTick:86.0 key=47 velocity: 80
Note on, E3 DurTick:86.0 key=52 velocity: 80
Note on, G#3 DurTick:86.0 key=56 velocity: 80
Note on, D3 DurTick:85.0 key=50 velocity: 80
Note on, D3 DurTick:86.0 key=50 velocity: 80
Note on, G3 DurTick:86.0 key=55 velocity: 80
Note on, A#3 DurTick:85.0 key=58 velocity: 80
Note on, E3 DurTick:86.0 key=52 velocity: 80
Note on, D#3 DurTick:86.0 key=51 velocity: 80
